<svg width="40" height="41" viewBox="0 0 40 41" fill="none" xmlns="http://www.w3.org/2000/svg">
<path d="M25 27.1988H15C14.558 27.1988 14.134 27.3744 13.8215 27.6869C13.5089 27.9995 13.3333 28.4234 13.3333 28.8654C13.3333 29.3075 13.5089 29.7314 13.8215 30.0439C14.134 30.3565 14.558 30.5321 15 30.5321H25C25.442 30.5321 25.8659 30.3565 26.1785 30.0439C26.4911 29.7314 26.6666 29.3075 26.6666 28.8654C26.6666 28.4234 26.4911 27.9995 26.1785 27.6869C25.8659 27.3744 25.442 27.1988 25 27.1988Z" fill="#012E40"/>
<path d="M15 23.8654H20C20.442 23.8654 20.8659 23.6898 21.1785 23.3773C21.4911 23.0647 21.6666 22.6408 21.6666 22.1988C21.6666 21.7567 21.4911 21.3328 21.1785 21.0203C20.8659 20.7077 20.442 20.5321 20 20.5321H15C14.558 20.5321 14.134 20.7077 13.8215 21.0203C13.5089 21.3328 13.3333 21.7567 13.3333 22.1988C13.3333 22.6408 13.5089 23.0647 13.8215 23.3773C14.134 23.6898 14.558 23.8654 15 23.8654Z" fill="#012E40"/>
<path d="M32.9 14.4154L23.8334 4.41544C23.6775 4.24279 23.4873 4.10466 23.2749 4.00994C23.0625 3.91521 22.8326 3.86599 22.6 3.86544H10.9334C10.3796 3.85884 9.82997 3.96138 9.31585 4.1672C8.80173 4.37303 8.33319 4.67811 7.93699 5.06503C7.54079 5.45195 7.22468 5.91313 7.00672 6.42222C6.78876 6.93131 6.67321 7.47836 6.66669 8.03211V33.0321C6.67321 33.5859 6.78876 34.1329 7.00672 34.642C7.22468 35.1511 7.54079 35.6123 7.93699 35.9992C8.33319 36.3861 8.80173 36.6912 9.31585 36.897C9.82997 37.1028 10.3796 37.2054 10.9334 37.1988H29.0667C29.6204 37.2054 30.1701 37.1028 30.6842 36.897C31.1983 36.6912 31.6668 36.3861 32.0631 35.9992C32.4593 35.6123 32.7754 35.1511 32.9933 34.642C33.2113 34.1329 33.3268 33.5859 33.3334 33.0321V15.5321C33.3323 15.1191 33.1779 14.7211 32.9 14.4154ZM23.3334 8.86544L27.9 13.8654H24.5667C24.3922 13.8549 24.2215 13.8097 24.0646 13.7325C23.9077 13.6553 23.7678 13.5476 23.653 13.4157C23.5382 13.2838 23.4508 13.1304 23.3959 12.9644C23.341 12.7984 23.3198 12.6231 23.3334 12.4488V8.86544ZM29.0667 33.8654H10.9334C10.8173 33.8722 10.7011 33.856 10.5913 33.8177C10.4815 33.7795 10.3804 33.7199 10.2937 33.6425C10.207 33.5651 10.1364 33.4713 10.086 33.3666C10.0356 33.2618 10.0064 33.1482 10 33.0321V8.03211C10.0064 7.91605 10.0356 7.80238 10.086 7.69764C10.1364 7.59289 10.207 7.49912 10.2937 7.42171C10.3804 7.34429 10.4815 7.28475 10.5913 7.24649C10.7011 7.20824 10.8173 7.19202 10.9334 7.19878H20V12.4488C19.9731 13.6765 20.4329 14.865 21.2791 15.7549C22.1253 16.6448 23.2892 17.1639 24.5167 17.1988H30V33.0321C29.9936 33.1482 29.9644 33.2618 29.914 33.3666C29.8636 33.4713 29.793 33.5651 29.7063 33.6425C29.6196 33.7199 29.5185 33.7795 29.4087 33.8177C29.299 33.856 29.1827 33.8722 29.0667 33.8654Z" fill="#012E40"/>
</svg>
