<svg width="40" height="41" viewBox="0 0 40 41" fill="none" xmlns="http://www.w3.org/2000/svg">
<path d="M31.6667 12.2417H26.6667V9.74174C26.6667 8.63667 26.2277 7.57686 25.4463 6.79546C24.6649 6.01406 23.6051 5.57507 22.5 5.57507H17.5C16.395 5.57507 15.3352 6.01406 14.5538 6.79546C13.7724 7.57686 13.3334 8.63667 13.3334 9.74174V12.2417H8.33337C7.00729 12.2417 5.73552 12.7685 4.79784 13.7062C3.86016 14.6439 3.33337 15.9157 3.33337 17.2417V30.5751C3.33337 31.9012 3.86016 33.1729 4.79784 34.1106C5.73552 35.0483 7.00729 35.5751 8.33337 35.5751H31.6667C32.9928 35.5751 34.2646 35.0483 35.2022 34.1106C36.1399 33.1729 36.6667 31.9012 36.6667 30.5751V17.2417C36.6667 15.9157 36.1399 14.6439 35.2022 13.7062C34.2646 12.7685 32.9928 12.2417 31.6667 12.2417ZM16.6667 9.74174C16.6667 9.52073 16.7545 9.30876 16.9108 9.15248C17.0671 8.9962 17.279 8.90841 17.5 8.90841H22.5C22.7211 8.90841 22.933 8.9962 23.0893 9.15248C23.2456 9.30876 23.3334 9.52073 23.3334 9.74174V12.2417H16.6667V9.74174ZM33.3334 30.5751C33.3334 31.0171 33.1578 31.441 32.8452 31.7536C32.5327 32.0661 32.1087 32.2417 31.6667 32.2417H8.33337C7.89135 32.2417 7.46742 32.0661 7.15486 31.7536C6.8423 31.441 6.66671 31.0171 6.66671 30.5751V17.2417C6.66671 16.7997 6.8423 16.3758 7.15486 16.0632C7.46742 15.7507 7.89135 15.5751 8.33337 15.5751H31.6667C32.1087 15.5751 32.5327 15.7507 32.8452 16.0632C33.1578 16.3758 33.3334 16.7997 33.3334 17.2417V30.5751Z" fill="#012E40"/>
</svg>
