<svg width="36" height="41" viewBox="0 0 36 41" fill="none" xmlns="http://www.w3.org/2000/svg">
<g id="&#240;&#159;&#166;&#134; icon &#34;home alt&#34;">
<path id="Vector" d="M34.0039 12.5656L22.0182 2.05814C20.9195 1.07541 19.4971 0.532104 18.023 0.532104C16.5489 0.532104 15.1265 1.07541 14.0278 2.05814L2.04211 12.5656C1.40761 13.133 0.901276 13.8292 0.556832 14.6076C0.212387 15.3861 0.0377343 16.2289 0.0445009 17.0802V34.5393C0.0445009 36.1287 0.675887 37.653 1.79976 38.7768C2.92363 39.9007 4.44793 40.5321 6.03733 40.5321H30.0086C31.598 40.5321 33.1223 39.9007 34.2462 38.7768C35.3701 37.653 36.0015 36.1287 36.0015 34.5393V17.0602C36.0054 16.2123 35.8294 15.3733 35.485 14.5985C35.1407 13.8237 34.6358 13.1308 34.0039 12.5656ZM22.0182 36.5369H14.0278V26.5488C14.0278 26.019 14.2382 25.5109 14.6129 25.1363C14.9875 24.7617 15.4956 24.5512 16.0254 24.5512H20.0206C20.5504 24.5512 21.0585 24.7617 21.4331 25.1363C21.8077 25.5109 22.0182 26.019 22.0182 26.5488V36.5369ZM32.0063 34.5393C32.0063 35.0691 31.7958 35.5772 31.4212 35.9518C31.0465 36.3264 30.5384 36.5369 30.0086 36.5369H26.0134V26.5488C26.0134 24.9594 25.382 23.4351 24.2582 22.3113C23.1343 21.1874 21.61 20.556 20.0206 20.556H16.0254C14.436 20.556 12.9117 21.1874 11.7878 22.3113C10.6639 23.4351 10.0325 24.9594 10.0325 26.5488V36.5369H6.03733C5.50753 36.5369 4.99943 36.3264 4.62481 35.9518C4.25018 35.5772 4.03972 35.0691 4.03972 34.5393V17.0602C4.04008 16.7766 4.10083 16.4963 4.21794 16.2379C4.33505 15.9796 4.50583 15.7492 4.71891 15.562L16.7046 5.07453C17.0691 4.75428 17.5378 4.57766 18.023 4.57766C18.5082 4.57766 18.9769 4.75428 19.3414 5.07453L31.3271 15.562C31.5401 15.7492 31.7109 15.9796 31.828 16.2379C31.9451 16.4963 32.0059 16.7766 32.0063 17.0602V34.5393Z" fill="#012E40"/>
</g>
</svg>
