<svg width="41" height="41" viewBox="0 0 41 41" fill="none" xmlns="http://www.w3.org/2000/svg">
<path d="M20.2418 4.01145C16.9455 4.01145 13.7231 4.98893 10.9823 6.82029C8.24149 8.65164 6.10528 11.2546 4.84382 14.3001C3.58236 17.3455 3.2523 20.6966 3.89539 23.9296C4.53847 27.1626 6.12582 30.1324 8.4567 32.4632C10.7876 34.7941 13.7573 36.3814 16.9903 37.0245C20.2233 37.6676 23.5744 37.3376 26.6199 36.0761C29.6653 34.8146 32.2683 32.6784 34.0996 29.9376C35.931 27.1968 36.9085 23.9745 36.9085 20.6781C36.9085 18.4894 36.4774 16.3221 35.6398 14.3001C34.8022 12.278 33.5746 10.4406 32.0269 8.893C30.4793 7.34536 28.642 6.1177 26.6199 5.28012C24.5978 4.44254 22.4305 4.01145 20.2418 4.01145ZM20.2418 34.0114C17.6047 34.0114 15.0269 33.2295 12.8342 31.7644C10.6415 30.2993 8.93258 28.2169 7.92342 25.7806C6.91425 23.3442 6.6502 20.6633 7.16467 18.0769C7.67914 15.4905 8.94902 13.1147 10.8137 11.25C12.6784 9.38532 15.0542 8.11545 17.6406 7.60098C20.227 7.08651 22.9079 7.35055 25.3443 8.35972C27.7806 9.36889 29.863 11.0779 31.3281 13.2705C32.7932 15.4632 33.5751 18.041 33.5751 20.6781C33.5751 24.2143 32.1704 27.6057 29.6699 30.1062C27.1694 32.6067 23.778 34.0114 20.2418 34.0114Z" fill="#231F20"/>
<path d="M20.2418 10.6781C18.6947 10.6781 17.211 11.2927 16.117 12.3867C15.023 13.4806 14.4084 14.9644 14.4084 16.5115C14.4084 16.9535 14.584 17.3774 14.8966 17.69C15.2092 18.0025 15.6331 18.1781 16.0751 18.1781C16.5171 18.1781 16.9411 18.0025 17.2536 17.69C17.5662 17.3774 17.7418 16.9535 17.7418 16.5115C17.7418 16.017 17.8884 15.5337 18.1631 15.1225C18.4378 14.7114 18.8283 14.391 19.2851 14.2018C19.7419 14.0125 20.2446 13.963 20.7295 14.0595C21.2145 14.156 21.6599 14.3941 22.0095 14.7437C22.3592 15.0933 22.5973 15.5388 22.6937 16.0237C22.7902 16.5087 22.7407 17.0114 22.5515 17.4682C22.3623 17.925 22.0418 18.3154 21.6307 18.5901C21.2196 18.8648 20.7362 19.0115 20.2418 19.0115C19.7998 19.0115 19.3758 19.1871 19.0633 19.4996C18.7507 19.8122 18.5751 20.2361 18.5751 20.6781V24.0115C18.5751 24.4535 18.7507 24.8774 19.0633 25.19C19.3758 25.5025 19.7998 25.6781 20.2418 25.6781C20.6838 25.6781 21.1077 25.5025 21.4203 25.19C21.7329 24.8774 21.9084 24.4535 21.9084 24.0115V22.0781C23.2553 21.6848 24.4146 20.8179 25.1726 19.6372C25.9306 18.4565 26.2363 17.0416 26.0334 15.6532C25.8304 14.2649 25.1324 12.9967 24.0681 12.0824C23.0038 11.1682 21.6448 10.6694 20.2418 10.6781Z" fill="#231F20"/>
<path d="M20.2418 30.6781C21.1623 30.6781 21.9085 29.9319 21.9085 29.0115C21.9085 28.091 21.1623 27.3448 20.2418 27.3448C19.3213 27.3448 18.5751 28.091 18.5751 29.0115C18.5751 29.9319 19.3213 30.6781 20.2418 30.6781Z" fill="#231F20"/>
</svg>
