<svg width="31" height="41" viewBox="0 0 31 41" fill="none" xmlns="http://www.w3.org/2000/svg">
<g id="&#240;&#159;&#166;&#134; icon &#34;band aid&#34;">
<path id="Vector" d="M15.1351 16.6671C14.727 17.5422 13.6867 17.9209 12.8117 17.5128C11.9365 17.1047 11.5579 16.0644 11.966 15.1893C12.3741 14.3142 13.4144 13.9356 14.2894 14.3436C15.1646 14.7517 15.5432 15.792 15.1351 16.6671Z" fill="#012E40"/>
<path id="Vector_2" d="M9.85596 23.851C10.7311 24.259 11.7713 23.8804 12.1794 23.0053C12.5874 22.1302 12.2089 21.09 11.3337 20.6819C10.4586 20.2738 9.41838 20.6523 9.01029 21.5276C8.60222 22.4026 8.98083 23.4429 9.85596 23.851Z" fill="#012E40"/>
<path id="Vector_3" d="M18.5177 25.9609C18.1097 26.836 17.0694 27.2147 16.1942 26.8066C15.3191 26.3985 14.9404 25.3582 15.3485 24.483C15.7565 23.608 16.7968 23.2293 17.672 23.6375C18.5471 24.0456 18.9258 25.0857 18.5177 25.9609Z" fill="#012E40"/>
<path id="Vector_4" d="M19.1497 20.4682C20.0247 20.8763 21.065 20.4978 21.4731 19.6226C21.8811 18.7475 21.5026 17.7072 20.6274 17.2992C19.7523 16.8911 18.712 17.2698 18.304 18.1448C17.8959 19.0201 18.2746 20.0602 19.1497 20.4682Z" fill="#012E40"/>
<path id="Vector_5" fill-rule="evenodd" clip-rule="evenodd" d="M24.1085 1.56043C18.8578 -0.888045 12.6163 1.38365 10.1678 6.63441L1.30108 25.649C-1.14738 30.8999 1.12432 37.1413 6.37508 39.5897C11.6258 42.0382 17.8673 39.7665 20.3157 34.5158L29.1824 15.5011C31.631 10.2503 29.3591 4.00889 24.1085 1.56043ZM18.6244 29.8688L24.5356 17.1925L11.8591 11.2813L5.94799 23.9578L18.6244 29.8688ZM17.1467 33.0379L4.4702 27.1269C2.83789 30.6273 4.35236 34.7884 7.85286 36.4207C11.3534 38.0529 15.5144 36.5385 17.1467 33.0379ZM22.6307 4.72953C26.1311 6.36184 27.6456 10.5228 26.0133 14.0233L13.3368 8.11219C14.9692 4.61169 19.1302 3.09722 22.6307 4.72953Z" fill="#012E40"/>
</g>
</svg>
