<svg width="16" height="16" viewBox="0 0 16 16" fill="none" xmlns="http://www.w3.org/2000/svg">
<g clip-path="url(#clip0_336_333)">
<path d="M10 8C10 6.89543 9.10457 6 8 6C6.89543 6 6 6.89543 6 8C6 9.10457 6.89543 10 8 10C9.10457 10 10 9.10457 10 8Z" stroke="#363939" stroke-width="2" stroke-linecap="round" stroke-linejoin="round"/>
<path d="M10.6405 3.14265C10.4242 3.18186 10.2012 3.15539 10.0001 3.06665C9.8029 2.98214 9.63474 2.84182 9.51629 2.66296C9.39784 2.4841 9.33427 2.2745 9.33341 2.05998L9.33341 1.99998C9.33341 1.64636 9.19294 1.30722 8.94289 1.05717C8.69284 0.807123 8.3537 0.666647 8.00008 0.666647C7.64646 0.666647 7.30732 0.807123 7.05727 1.05717C6.80722 1.30722 6.66675 1.64636 6.66675 1.99998L6.66675 2.11331C6.66589 2.32784 6.60233 2.53743 6.48388 2.71629C6.36543 2.89515 6.19726 3.03547 6.00008 3.11998L5.94675 3.11998C5.74567 3.20872 5.52262 3.2352 5.30635 3.19598C5.09009 3.15677 4.89053 3.05367 4.73341 2.89998L4.69341 2.85998C4.56958 2.73601 4.42253 2.63767 4.26067 2.57057C4.0988 2.50347 3.9253 2.46893 3.75008 2.46893C3.57486 2.46893 3.40136 2.50347 3.23949 2.57057C3.07763 2.63767 2.93058 2.73601 2.80675 2.85998C2.68278 2.98381 2.58443 3.13086 2.51733 3.29273C2.45024 3.45459 2.4157 3.62809 2.4157 3.80331C2.4157 3.97853 2.45024 4.15204 2.51733 4.3139C2.58443 4.47576 2.68278 4.62282 2.80675 4.74665L2.84675 4.78665C3.00044 4.94377 3.10354 5.14332 3.14275 5.35959C3.18196 5.57585 3.15549 5.7989 3.06675 5.99998C2.98224 6.19716 2.84192 6.36532 2.66306 6.48378C2.4842 6.60223 2.27461 6.66579 2.06008 6.66665L2.00008 6.66665C1.64646 6.66665 1.30732 6.80712 1.05727 7.05717C0.807223 7.30722 0.666748 7.64636 0.666748 7.99998C0.666748 8.3536 0.807224 8.69274 1.05727 8.94279C1.30732 9.19284 1.64646 9.33331 2.00008 9.33331L2.11341 9.33331C2.32794 9.33417 2.53753 9.39773 2.71639 9.51618C2.89525 9.63464 3.03557 9.8028 3.12008 9.99998L3.12008 10.0533C3.20882 10.2544 3.2353 10.4774 3.19608 10.6937C3.15687 10.91 3.05377 11.1095 2.90008 11.2666L2.86008 11.3066C2.73611 11.4305 2.63777 11.5775 2.57067 11.7394C2.50357 11.9013 2.46903 12.0748 2.46903 12.25C2.46903 12.4252 2.50357 12.5987 2.57067 12.7606C2.63777 12.9224 2.73611 13.0695 2.86008 13.1933C2.98391 13.3173 3.13096 13.4156 3.29283 13.4827C3.45469 13.5498 3.62819 13.5844 3.80341 13.5844C3.97863 13.5844 4.15214 13.5498 4.314 13.4827C4.47587 13.4156 4.62292 13.3173 4.74675 13.1933L4.78675 13.1533C4.94387 12.9996 5.14343 12.8965 5.35969 12.8573C5.57595 12.8181 5.799 12.8446 6.00008 12.9333C6.20724 13.0095 6.38668 13.1463 6.51509 13.3258C6.64349 13.5053 6.71492 13.7193 6.72008 13.94L6.72008 14C6.72008 14.3536 6.86056 14.6927 7.11061 14.9428C7.36065 15.1928 7.69979 15.3333 8.05341 15.3333C8.40704 15.3333 8.74617 15.1928 8.99622 14.9428C9.24627 14.6927 9.38675 14.3536 9.38675 14L9.38675 13.8866C9.3876 13.6721 9.45117 13.4625 9.56962 13.2837C9.68807 13.1048 9.85623 12.9645 10.0534 12.88C10.2545 12.7912 10.4775 12.7648 10.6938 12.804C10.9101 12.8432 11.1096 12.9463 11.2667 13.1L11.3067 13.14C11.4306 13.2639 11.5776 13.3623 11.7395 13.4294C11.9014 13.4965 12.0749 13.531 12.2501 13.531C12.4253 13.531 12.5988 13.4965 12.7607 13.4294C12.9225 13.3623 13.0696 13.2639 13.1934 13.14C13.3174 13.0161 13.4157 12.8691 13.4828 12.7072C13.5499 12.5454 13.5845 12.3719 13.5845 12.1966C13.5845 12.0214 13.5499 11.8479 13.4828 11.6861C13.4157 11.5242 13.3174 11.3771 13.1934 11.2533L13.1534 11.2133C12.9997 11.0562 12.8966 10.8566 12.8574 10.6404C12.8182 10.4241 12.8447 10.2011 12.9334 9.99998C13.0096 9.79282 13.1464 9.61338 13.3259 9.48497C13.5054 9.35657 13.7194 9.28514 13.9401 9.27998L14.0001 9.27998C14.3537 9.27998 14.6928 9.1395 14.9429 8.88945C15.1929 8.63941 15.3334 8.30027 15.3334 7.94665C15.3334 7.59302 15.1929 7.25389 14.9429 7.00384C14.6928 6.75379 14.3537 6.61331 14.0001 6.61331L13.8867 6.61331C13.6722 6.61246 13.4626 6.54889 13.2838 6.43044C13.1049 6.31199 12.9646 6.14383 12.8801 5.94665C12.7913 5.74557 12.7649 5.52252 12.8041 5.30625C12.8433 5.08999 12.9464 4.89043 13.1001 4.73331L13.1401 4.69331C13.264 4.56948 13.3624 4.42243 13.4295 4.26057C13.4966 4.0987 13.5311 3.9252 13.5311 3.74998C13.5311 3.57476 13.4966 3.40126 13.4295 3.23939C13.3624 3.07753 13.264 2.93048 13.1401 2.80665C13.0162 2.68268 12.8692 2.58433 12.7073 2.51723C12.5455 2.45013 12.372 2.4156 12.1967 2.4156C12.0215 2.4156 11.848 2.45013 11.6862 2.51723C11.5243 2.58433 11.3772 2.68268 11.2534 2.80665L11.2134 2.84665C11.0563 3.00034 10.8567 3.10344 10.6405 3.14265Z" stroke="#363939" stroke-width="2" stroke-linecap="round" stroke-linejoin="round"/>
</g>
<defs>
<clipPath id="clip0_336_333">
<rect width="16" height="16" fill="white" transform="translate(0 16) rotate(-90)"/>
</clipPath>
</defs>
</svg>
